Coordinates
version=1
nRows=7
nColumns=63
inDegrees=yes

Units are S.I. units (second, meters, Newtons, ...)
If the header above contains a line with 'inDegrees', this indicates whether rotational values are in degrees (yes) or radians (no).

endheader
time	pelvis_tilt	pelvis_list	pelvis_rotation	pelvis_tx	pelvis_ty	pelvis_tz	hip_flexion_r	hip_adduction_r	hip_rotation_r	knee_angle_r	knee_angle_r_beta	ankle_angle_r	subtalar_angle_r	mtp_angle_r	hip_flexion_l	hip_adduction_l	hip_rotation_l	knee_angle_l	knee_angle_l_beta	ankle_angle_l	subtalar_angle_l	mtp_angle_l	L5_S1_Flex_Ext	L5_S1_Lat_Bending	L5_S1_axial_rotation	L4_L5_Flex_Ext	L4_L5_Lat_Bending	L4_L5_axial_rotation	L3_L4_Flex_Ext	L3_L4_Lat_Bending	L3_L4_axial_rotation	L2_L3_Flex_Ext	L2_L3_Lat_Bending	L2_L3_axial_rotation	L1_L2_Flex_Ext	L1_L2_Lat_Bending	L1_L2_axial_rotation	L1_T12_Flex_Ext	L1_T12_Lat_Bending	L1_T12_axial_rotation	Abs_r3	Abs_r2	Abs_r1	Abs_t1	Abs_t2	neck_flexion	neck_bending	neck_rotation	arm_flex_r	arm_add_r	arm_rot_r	elbow_flex_r	pro_sup_r	wrist_flex_r	wrist_dev_r	arm_flex_l	arm_add_l	arm_rot_l	elbow_flex_l	pro_sup_l	wrist_flex_l	wrist_dev_l
      7.50000000	    -61.95082732	     -4.54825648	     -6.04186283	     -0.29804457	      1.13034006	      0.04217969	    120.40195733	     -5.19352816	     -8.92896019	    103.99540451	      1.81506222	     27.38739891	      0.57818772	      0.00000000	     83.36872964	     -9.68264149	      0.05563746	     32.17890809	      0.56162790	      6.74652392	      9.33731507	      0.00000000	     -0.08948793	      1.37231444	      0.97871176	     -0.16618803	      1.82517820	      1.03988124	     -0.14701972	      3.33664532	      1.03988124	     -0.10227575	      3.33664532	      0.85637279	     -0.08309849	      2.79842360	      0.79520330	     -0.05113340	      2.12571506	      0.73403382	     -0.63920331	     15.52389538	      5.44330117	      0.00000000	      0.00000000	      0.00000000	      0.00000000	      0.00000000	     67.93446174	     -6.36697806	      2.83482252	     35.59271089	     59.10990788	      0.00000000	      5.00000014	     59.60134188	     -2.83379620	     -9.70694818	     38.18889974	     58.06869551	      0.00000000	      5.00000014
      7.50800000	    -61.93569526	     -4.56093271	     -5.90208653	     -0.29842467	      1.13024754	      0.04227690	    120.67036850	     -5.17323293	     -8.92793481	    103.24885809	      1.80203252	     27.46566147	      0.06383753	      0.00000000	     83.47421584	     -9.63307429	      0.08953251	     33.44781722	      0.58377454	      7.38715466	      9.15417825	      0.00000000	     -0.08915897	      1.37087783	      0.95601408	     -0.16557713	      1.82326751	      1.01576496	     -0.14647928	      3.33315235	      1.01576496	     -0.10189979	      3.33315235	      0.83651232	     -0.08279302	      2.79549407	      0.77676144	     -0.05094544	      2.12348976	      0.71701056	     -0.63685363	     15.50764416	      5.31706353	      0.00000000	      0.00000000	      0.00000000	      0.00000000	      0.00000000	     67.96287969	     -6.37304184	      2.90224055	     35.56786445	     59.16444528	      0.00000000	      5.00000014	     59.64982854	     -2.87114628	     -9.66971568	     38.14810524	     58.11164382	      0.00000000	      5.00000014
      7.51700000	    -61.92027272	     -4.56676050	     -5.79073081	     -0.29878154	      1.13012955	      0.04237490	    120.87300460	     -5.13462076	     -8.98087215	    102.41910928	      1.78755067	     27.45926685	     -0.63561696	      0.00000000	     83.64484221	     -9.58926025	      0.21318281	     34.83835207	      0.60804395	      8.15893784	      8.83718044	      0.00000000	     -0.08834175	      1.36932515	      0.93790163	     -0.16405947	      1.82120244	      0.99652048	     -0.14513667	      3.32937716	      0.99652048	     -0.10096579	      3.32937716	      0.82066393	     -0.08203415	      2.79232784	      0.76204508	     -0.05047848	      2.12108465	      0.70342622	     -0.63101631	     15.49007992	      5.21632751	      0.00000000	      0.00000000	      0.00000000	      0.00000000	      0.00000000	     67.96927950	     -6.37112230	      2.93849447	     35.54863162	     59.21371958	      0.00000000	      5.00000014	     59.69248695	     -2.91208489	     -9.61555836	     38.12202035	     58.15659444	      0.00000000	      5.00000014
      7.52500000	    -61.90711715	     -4.53274106	     -5.67746199	     -0.29917720	      1.13004617	      0.04239900	    121.03334414	     -5.10605435	     -9.06057286	    101.52244385	      1.77190091	     27.39680057	     -1.44597070	      0.00000000	     83.86975642	     -9.49656305	      0.41784569	     36.31995034	      0.63390272	      8.97183982	      8.42616283	      0.00000000	     -0.08905368	      1.36558270	      0.92027739	     -0.16538160	      1.81622499	      0.97779472	     -0.14630630	      3.32027777	      0.97779472	     -0.10177946	      3.32027777	      0.80524271	     -0.08269525	      2.78469624	      0.74772538	     -0.05088528	      2.11528760	      0.69020804	     -0.63610157	     15.44774461	      5.11830673	      0.00000000	      0.00000000	      0.00000000	      0.00000000	      0.00000000	     67.99859005	     -6.34285504	      2.94357305	     35.56548867	     59.25294230	      0.00000000	      5.00000014	     59.72140763	     -2.96019320	     -9.56474647	     38.11071587	     58.19704734	      0.00000000	      5.00000014
      7.53300000	    -61.93620233	     -4.66934880	     -5.77369511	     -0.29956940	      1.13013363	      0.04259776	    121.10581077	     -4.94865418	     -9.63897861	    100.42815359	      1.75280194	     26.25952591	     -4.34148791	      0.00000000	     84.18932701	     -9.54613149	      1.06455493	     37.83751478	      0.66038921	      9.76422888	      7.39754738	      0.00000000	     -0.08946901	      1.38366209	      0.94741268	     -0.16615291	      1.84027058	      1.00662597	     -0.14698864	      3.36423601	      1.00662597	     -0.10225414	      3.36423601	      0.82898609	     -0.08308093	      2.82156373	      0.76977280	     -0.05112260	      2.14329258	      0.71055951	     -0.63906823	     15.65226230	      5.26922509	      0.00000000	      0.00000000	      0.00000000	      0.00000000	      0.00000000	     68.07774364	     -6.39402082	      2.92470627	     35.51521361	     59.55232574	      0.00000000	      5.00000014	     59.73853409	     -2.93471368	     -9.46918620	     38.14283005	     58.46175225	      0.00000000	      5.00000014
      7.54200000	    -61.93088610	     -4.64778430	     -5.74767063	     -0.29989206	      1.13013246	      0.04268139	    121.09541482	     -4.86625562	     -9.83930178	     99.32833361	      1.73360646	     26.16442234	     -5.23428321	      0.00000000	     84.54838474	     -9.49701809	      1.39566543	     39.52440650	      0.68983103	     10.55067531	      6.78561067	      0.00000000	     -0.08983620	      1.38290328	      0.94403060	     -0.16683481	      1.83926136	      1.00303252	     -0.14759189	      3.36239103	      1.00303252	     -0.10267379	      3.36239103	      0.82602678	     -0.08342189	      2.82001637	      0.76702486	     -0.05133240	      2.14211718	      0.70802295	     -0.64169099	     15.64367848	      5.25041500	      0.00000000	      0.00000000	      0.00000000	      0.00000000	      0.00000000	     68.07985036	     -6.33265248	      2.83399109	     35.56096045	     59.64742863	      0.00000000	      5.00000014	     59.72773221	     -2.96321876	     -9.47620588	     38.16372274	     58.55326775	      0.00000000	      5.00000014
      7.55000000	    -61.89216069	     -4.51051185	     -5.47555009	     -0.30019601	      1.13005577	      0.04252894	    121.07251020	     -4.94637830	     -9.74638377	     98.27059885	      1.71514551	     26.27272143	     -5.54368839	      0.00000000	     84.93933876	     -9.18310108	      1.64056428	     41.29002485	      0.72064688	     11.04500003	      6.24701411	      0.00000000	     -0.08959162	      1.36387616	      0.89681496	     -0.16638060	      1.81395530	      0.95286589	     -0.14719008	      3.31612850	      0.95286589	     -0.10239427	      3.31612850	      0.78471309	     -0.08319478	      2.78121627	      0.72866215	     -0.05119265	      2.11264418	      0.67261122	     -0.63994400	     15.42843994	      4.98781576	      0.00000000	      0.00000000	      0.00000000	      0.00000000	      0.00000000	     68.01071654	     -6.29315703	      2.79439763	     35.67201392	     59.33358832	      0.00000000	      5.00000014	     59.73757184	     -2.97476362	     -9.51608478	     38.24658448	     58.25747771	      0.00000000	      5.00000014
